Coordinates
version=1
nRows=18
nColumns=38
inDegrees=no

Units are S.I. units (second, meters, Newtons, ...)
If the header above contains a line with 'inDegrees', this indicates whether rotational values are in degrees (yes) or radians (no).

endheader
time	pelvis_tilt	pelvis_list	pelvis_rotation	pelvis_tx	pelvis_ty	pelvis_tz	hip_flexion_r	hip_adduction_r	hip_rotation_r	knee_angle_r	ankle_angle_r	subtalar_angle_r	mtp_angle_r	hip_flexion_l	hip_adduction_l	hip_rotation_l	knee_angle_l	ankle_angle_l	subtalar_angle_l	mtp_angle_l	lumbar_extension	lumbar_bending	lumbar_rotation	arm_flex_r	arm_add_r	arm_rot_r	elbow_flex_r	pro_sup_r	wrist_flex_r	wrist_dev_r	arm_flex_l	arm_add_l	arm_rot_l	elbow_flex_l	pro_sup_l	wrist_flex_l	wrist_dev_l
2.72	0.00464959	-0.0406985	-0.0690233	0.948556	0.962307	-0.50104	0.401452	0.0749325	0.115878	0.0237448	0.0772832	-0.0674972	-0.0230796	-0.286536	0.00179796	0.086755	0.107354	0.334714	0.0112922	-0.0251533	-0.221836	0.0534349	-0.0208697	-0.381132	-0.0627581	-0.233946	0.625039	1.16157	0.00139679	-0.000244118	-0.04011	-0.219108	-0.0599189	1.38714	1.23031	0.00236563	-0.0017668
2.725	0.00497965	-0.0411524	-0.0642957	0.955383	0.961597	-0.501265	0.402624	0.0746188	0.112882	0.0338242	0.0707355	-0.0699682	-0.0230796	-0.29148	0.000213491	0.086938	0.111768	0.333045	0.0147013	-0.0251533	-0.221196	0.0568777	-0.0251983	-0.379275	-0.0620779	-0.232249	0.622494	1.1618	0.00139679	-0.000244118	-0.0418241	-0.216911	-0.0603203	1.38371	1.22745	0.00236563	-0.0017668
2.73	0.00532803	-0.0414441	-0.0595071	0.962264	0.960922	-0.501487	0.403926	0.0740956	0.10964	0.045555	0.0648587	-0.0723214	-0.0230796	-0.295825	-0.00127558	0.0867892	0.117501	0.331115	0.0181794	-0.0251533	-0.220428	0.0601557	-0.029577	-0.377214	-0.0614565	-0.23065	0.620038	1.16223	0.00139679	-0.000244118	-0.0439007	-0.214576	-0.0606897	1.37973	1.22491	0.00236563	-0.0017668
2.735	0.00568982	-0.0415743	-0.0546804	0.969201	0.960282	-0.501705	0.405349	0.0733691	0.106168	0.0588879	0.0596499	-0.0745522	-0.0230796	-0.299572	-0.0026674	0.086302	0.124542	0.328919	0.0217236	-0.0251533	-0.219531	0.0632669	-0.0339874	-0.374951	-0.0608932	-0.229145	0.617675	1.16282	0.00139679	-0.000244118	-0.0463332	-0.212105	-0.0610181	1.37519	1.22268	0.00236563	-0.0017668
2.74	0.00605166	-0.0415461	-0.049869	0.976193	0.959673	-0.501916	0.406863	0.0724611	0.102514	0.0736852	0.0550919	-0.0766469	-0.0230796	-0.302722	-0.00395868	0.0854496	0.132871	0.326441	0.0253305	-0.0251533	-0.218505	0.0662074	-0.038374	-0.372497	-0.0603866	-0.227732	0.615413	1.16355	0.00139679	-0.000244118	-0.049103	-0.209497	-0.0612847	1.37011	1.22072	0.00236563	-0.0017668
2.745	0.00639238	-0.0413703	-0.0451637	0.983239	0.959091	-0.502113	0.408433	0.0714176	0.0987635	0.0897144	0.0511435	-0.0785817	-0.0230796	-0.305274	-0.0051469	0.0841736	0.142457	0.323656	0.029002	-0.0251533	-0.217347	0.0689731	-0.0426339	-0.369865	-0.0599334	-0.22641	0.613262	1.1644	0.00139679	-0.000244118	-0.0521758	-0.206753	-0.0614624	1.36449	1.21902	0.00236563	-0.0017668
2.75	0.0066906	-0.0410672	-0.0406852	0.990337	0.958533	-0.502284	0.410019	0.0703101	0.0950407	0.106674	0.0477387	-0.0803253	-0.0230796	-0.307216	-0.00623303	0.0823838	0.153273	0.320529	0.0327423	-0.0251533	-0.216054	0.0715623	-0.0466209	-0.367073	-0.0595299	-0.225173	0.611233	1.16533	0.00139679	-0.000244118	-0.0555013	-0.203866	-0.0615204	1.35834	1.21757	0.00236563	-0.0017668
2.755	0.00692713	-0.0406683	-0.0365761	0.997484	0.957996	-0.502419	0.411597	0.0692323	0.0914931	0.124239	0.0447947	-0.0818464	-0.0230796	-0.308528	-0.00722566	0.0799682	0.165302	0.317018	0.0365553	-0.0251533	-0.214627	0.0739785	-0.0501613	-0.364141	-0.0591712	-0.224011	0.609337	1.16629	0.00139679	-0.000244118	-0.0590162	-0.200827	-0.0614292	1.35166	1.21635	0.00236563	-0.0017668
2.76	0.00708458	-0.0402172	-0.0329817	1.00468	0.957479	-0.502502	0.413152	0.0682902	0.0882692	0.142102	0.0422253	-0.083121	-0.0230796	-0.309178	-0.00814563	0.0768108	0.178544	0.313067	0.0404404	-0.0251533	-0.213072	0.0762338	-0.0530779	-0.361085	-0.0588508	-0.222907	0.607587	1.16723	0.00139679	-0.000244118	-0.0626485	-0.197625	-0.0611644	1.34444	1.21535	0.00236563	-0.0017668
2.765	0.00715641	-0.0397689	-0.0300294	1.01191	0.956985	-0.50252	0.414678	0.0675892	0.0854913	0.160015	0.0399573	-0.0841381	-0.0230796	-0.309132	-0.00902969	0.0728143	0.193021	0.308609	0.0443886	-0.0251533	-0.211405	0.0783514	-0.0552187	-0.357925	-0.0585586	-0.221849	0.605997	1.16813	0.00139679	-0.000244118	-0.0663242	-0.19425	-0.0607106	1.33666	1.2146	0.00236563	-0.0017668
2.77	0.00714964	-0.0393812	-0.0278026	1.01918	0.956528	-0.502463	0.416168	0.0672189	0.0832317	0.177794	0.0379468	-0.0849033	-0.0230796	-0.308354	-0.00992965	0.0679239	0.208776	0.303561	0.0483758	-0.0251533	-0.209657	0.0803629	-0.0564805	-0.354676	-0.0582814	-0.220824	0.604585	1.16896	0.00139679	-0.000244118	-0.0699727	-0.190696	-0.0600592	1.32831	1.21415	0.00236563	-0.0017668
2.775	0.00708127	-0.0391035	-0.0263202	1.02647	0.956123	-0.502325	0.417609	0.0672389	0.0814984	0.195323	0.0361894	-0.0854408	-0.0230796	-0.306807	-0.0109086	0.0621464	0.225868	0.297824	0.0523564	-0.0251533	-0.20786	0.0823048	-0.0568268	-0.351356	-0.0580027	-0.219817	0.603369	1.16971	0.00139679	-0.000244118	-0.073532	-0.186969	-0.0592069	1.31936	1.21405	0.00236563	-0.0017668
2.78	0.00698172	-0.0389771	-0.0255369	1.03377	0.955786	-0.502108	0.418969	0.0676707	0.0802344	0.212526	0.0347215	-0.0857915	-0.0230796	-0.304452	-0.0120353	0.0555577	0.244366	0.291283	0.0562619	-0.0251533	-0.206054	0.0842142	-0.0562925	-0.347979	-0.0577027	-0.218816	0.602373	1.17039	0.00139679	-0.000244118	-0.0769517	-0.183083	-0.0581563	1.3098	1.21438	0.00236563	-0.0017668
2.785	0.00687487	-0.0390262	-0.0253511	1.0411	0.955524	-0.501817	0.420206	0.0684978	0.0793315	0.229352	0.0336138	-0.086011	-0.0230796	-0.301243	-0.0133781	0.0482995	0.264342	0.283807	0.0600005	-0.0251533	-0.204266	0.0861247	-0.0549756	-0.344561	-0.0573625	-0.217804	0.601619	1.17099	0.00139679	-0.000244118	-0.0801951	-0.179062	-0.0569119	1.29962	1.21522	0.00236563	-0.0017668
2.79	0.00676757	-0.0392623	-0.025626	1.04842	0.95534	-0.501462	0.421271	0.0696752	0.0786529	0.245751	0.0329585	-0.0861651	-0.0230796	-0.29712	-0.0150011	0.0405634	0.285865	0.27526	0.0634634	-0.0251533	-0.202508	0.0880665	-0.0530191	-0.341118	-0.0569669	-0.216761	0.601132	1.1715	0.00139679	-0.000244118	-0.0832417	-0.174934	-0.055479	1.28884	1.21659	0.00236563	-0.0017668
2.795	0.00664974	-0.0396922	-0.0262107	1.05575	0.95523	-0.501055	0.42212	0.0711442	0.0780585	0.261668	0.0328558	-0.0863254	-0.0230796	-0.292012	-0.0169637	0.0325694	0.30899	0.265501	0.066533	-0.0251533	-0.200764	0.0900699	-0.0505873	-0.337668	-0.0565091	-0.215659	0.600933	1.17187	0.00139679	-0.000244118	-0.0860858	-0.170731	-0.0538643	1.27748	1.21847	0.00236563	-0.0017668
2.8	0.00649471	-0.0403225	-0.0269574	1.06308	0.95519	-0.50061	0.422721	0.0728488	0.0774245	0.277044	0.0334006	-0.0865633	-0.0230796	-0.285839	-0.0193207	0.0245437	0.333759	0.254404	0.0690944	-0.0251533	-0.198999	0.0921679	-0.0478438	-0.334229	-0.0559919	-0.214473	0.601042	1.17207	0.00139679	-0.000244118	-0.0887351	-0.166481	-0.0520777	1.26555	1.22085	0.00236563	-0.0017668
2.805	0.00625998	-0.0411616	-0.0277383	1.0704	0.95521	-0.500137	0.423061	0.0747456	0.0766593	0.291817	0.0346731	-0.0869431	-0.0230796	-0.278516	-0.0221204	0.0167002	0.360198	0.241861	0.0710445	-0.0251533	-0.197162	0.0943969	-0.0449327	-0.330811	-0.0554302	-0.213176	0.601476	1.17205	0.00139679	-0.000244118	-0.091206	-0.162205	-0.0501323	1.25309	1.22367	0.00236563	-0.0017668
